<svg xmlns="http://www.w3.org/2000/svg" width="100" height="45" viewBox="0 0 100 45">
  <g id="Group_17" data-name="Group 17" transform="translate(-130 -147)">
    <rect id="Rectangle_518" data-name="Rectangle 518" width="74" height="20" rx="5" transform="translate(156 172)"
      fill="#1565c0" />
    <text id="xY8_s_a" data-name="xY8%!s#a" transform="translate(164 186)" fill="#fff" font-size="12"
      font-family="Roboto-Light, Roboto" font-weight="300">
      <tspan x="0" y="0">xY8%!s#a</tspan>
    </text>
    <g id="lock_black_24dp" transform="translate(220 181)">
      <path id="Path_5" data-name="Path 5"
        d="M8.083,3.25H7.792V2.607A1.539,1.539,0,0,0,6.333,1,1.539,1.539,0,0,0,4.875,2.607V3.25H4.583A.617.617,0,0,0,4,3.893V7.107a.617.617,0,0,0,.583.643h3.5a.617.617,0,0,0,.583-.643V3.893A.617.617,0,0,0,8.083,3.25ZM6.333,6.143a.646.646,0,0,1,0-1.286.646.646,0,0,1,0,1.286Zm.9-2.893H5.429V2.607a.954.954,0,0,1,.9-1,.954.954,0,0,1,.9,1Z"
        transform="translate(-2.333 -0.583)" fill="#fff" />
    </g>
    <rect id="Rectangle_524" data-name="Rectangle 524" width="58" height="20" rx="5" transform="translate(130 147)"
      fill="#eceff1" />
    <text id="Cześć_" data-name="Cześć!" transform="translate(138 161)" font-size="12"
      font-family="Roboto-Light, Roboto" font-weight="300">
      <tspan x="0" y="0">Cześć!</tspan>
    </text>
    <g id="lock_open_black_24dp" transform="translate(178 156)">
      <path id="Path_6" data-name="Path 6" d="M0,0H8V8H0Z" fill="none" />
      <path id="Path_7" data-name="Path 7"
        d="M6.333,6.143a.646.646,0,0,0,0-1.286.646.646,0,0,0,0,1.286ZM8.083,3.25H7.792V2.607A1.539,1.539,0,0,0,6.333,1,1.539,1.539,0,0,0,4.875,2.607h.554a.954.954,0,0,1,.9-1,.954.954,0,0,1,.9,1V3.25H4.583A.617.617,0,0,0,4,3.893V7.107a.617.617,0,0,0,.583.643h3.5a.617.617,0,0,0,.583-.643V3.893A.617.617,0,0,0,8.083,3.25Zm0,3.857h-3.5V3.893h3.5Z"
        transform="translate(-2.333 -0.583)" fill="#78909c" />
    </g>
  </g>
</svg>