<svg xmlns="http://www.w3.org/2000/svg" width="114.38" height="70" viewBox="0 0 114.38 70"><g transform="translate(-108 -635)"><path d="M18.088,0a28.79,28.79,0,0,1-.266-4.522v-6.46c0-4.37-1.976-8.018-8.17-8.018a15.339,15.339,0,0,0-7.22,1.634L3.5-13.642a10.451,10.451,0,0,1,5.13-1.406c2.85,0,3.382,1.406,3.382,2.394v.266C5.434-12.426,1.1-10.108,1.1-5.282a5.7,5.7,0,0,0,6,5.7,6.694,6.694,0,0,0,5.32-2.28h.114L12.882,0ZM12.2-6.764a4.142,4.142,0,0,1-.114.988,3.155,3.155,0,0,1-3,2.128,2.075,2.075,0,0,1-2.28-2.2c0-2.242,2.356-2.964,5.4-2.926ZM28.842,0V-14.326h3.686v-4.256H28.8v-.95c0-1.824.8-3.306,2.7-3.306a6.247,6.247,0,0,1,1.862.266l.228-4.446a11.094,11.094,0,0,0-3.078-.38,7.528,7.528,0,0,0-5.13,1.862A8.473,8.473,0,0,0,23.028-19.3v.722H20.6v4.256h2.432V0ZM51.376-7.448a13.721,13.721,0,0,0,.19-2.28c0-4.6-2.28-9.272-8.284-9.272-6.46,0-9.386,5.206-9.386,9.918C33.9-3.268,37.506.38,43.814.38A18.342,18.342,0,0,0,50.54-.76l-.76-3.914a16.366,16.366,0,0,1-5.13.76c-2.7,0-5.054-1.14-5.244-3.534ZM39.368-11.4c.152-1.558,1.14-3.762,3.572-3.762,2.66,0,3.268,2.356,3.268,3.762Z" transform="translate(149 669)"/><path d="M1.83,0H6.39V-8.7a2.9,2.9,0,0,1,.15-1.02,2.426,2.426,0,0,1,2.28-1.59c1.71,0,2.37,1.32,2.37,3.24V0h4.56V-8.58c0-4.41-2.22-6.42-5.13-6.42a5.121,5.121,0,0,0-2.37.57,5.477,5.477,0,0,0-1.8,1.5H6.39V-21.3H1.83ZM31.86,0a22.729,22.729,0,0,1-.21-3.57v-5.1c0-3.45-1.56-6.33-6.45-6.33a12.11,12.11,0,0,0-5.7,1.29l.84,2.94a8.251,8.251,0,0,1,4.05-1.11c2.25,0,2.67,1.11,2.67,1.89v.21c-5.19-.03-8.61,1.8-8.61,5.61A4.5,4.5,0,0,0,23.19.33a5.285,5.285,0,0,0,4.2-1.8h.09L27.75,0ZM27.21-5.34a3.27,3.27,0,0,1-.09.78,2.491,2.491,0,0,1-2.37,1.68,1.638,1.638,0,0,1-1.8-1.74c0-1.77,1.86-2.34,4.26-2.31Zm8.43-12.51v3.18H33.69v3.36h1.95v6c0,2.07.42,3.48,1.26,4.35A4.743,4.743,0,0,0,40.32.3a8.946,8.946,0,0,0,2.97-.39l-.03-3.45a7.447,7.447,0,0,1-1.35.12c-1.38,0-1.8-.81-1.8-2.58v-5.31h3.27v-3.36H40.11v-4.2Z" transform="translate(179 701)"/><rect width="20" height="20" transform="translate(108 635)" fill="#11479f"/><rect width="20" height="20" transform="translate(128 635)" fill="#1965be"/><rect width="20" height="20" transform="translate(108 655)" fill="#1d76d0"/><rect width="20" height="20" transform="translate(128 655)" fill="#2288e3"/><path d="M1.52-1.178A16.762,16.762,0,0,0,8.778.38c7.03,0,10.336-3.648,10.336-7.942,0-3.61-2.128-5.966-6.65-7.638-3.306-1.254-4.75-1.976-4.75-3.61,0-1.33,1.216-2.47,3.724-2.47A12.175,12.175,0,0,1,16.8-20.064l1.292-4.674a15.692,15.692,0,0,0-6.536-1.292c-6.042,0-9.69,3.344-9.69,7.714,0,3.724,2.774,6.08,7.03,7.562,3.078,1.1,4.294,2.014,4.294,3.61,0,1.672-1.406,2.774-4.066,2.774A14.777,14.777,0,0,1,2.7-5.966Z" transform="translate(117 668)" fill="#fff"/><rect width="15" height="15" transform="translate(163 675)" fill="#445963"/><rect width="15" height="15" transform="translate(148 690)" fill="#36464e"/><rect width="15" height="15" transform="translate(163 690)" fill="#253137"/><rect width="15" height="15" transform="translate(148 675)" fill="#536d79"/><path d="M16.14-4.14a11.424,11.424,0,0,1-3.81.66c-4.08,0-6.48-2.55-6.48-6.6,0-4.5,2.82-6.69,6.45-6.69a9.875,9.875,0,0,1,3.84.75l.93-3.63a11.922,11.922,0,0,0-4.98-.9c-6.12,0-11.04,3.84-11.04,10.74C1.05-4.05,4.65.3,11.64.3a13.033,13.033,0,0,0,5.19-.87Z" transform="translate(153 700)" fill="#fff"/></g></svg>